%TF.GenerationSoftware,KiCad,Pcbnew,(6.0.0)*%
%TF.CreationDate,2022-04-27T01:12:06+05:30*%
%TF.ProjectId,Multislope 3I,4d756c74-6973-46c6-9f70-652033492e6b,rev?*%
%TF.SameCoordinates,Original*%
%TF.FileFunction,Paste,Top*%
%TF.FilePolarity,Positive*%
%FSLAX46Y46*%
G04 Gerber Fmt 4.6, Leading zero omitted, Abs format (unit mm)*
G04 Created by KiCad (PCBNEW (6.0.0)) date 2022-04-27 01:12:06*
%MOMM*%
%LPD*%
G01*
G04 APERTURE LIST*
G04 Aperture macros list*
%AMRoundRect*
0 Rectangle with rounded corners*
0 $1 Rounding radius*
0 $2 $3 $4 $5 $6 $7 $8 $9 X,Y pos of 4 corners*
0 Add a 4 corners polygon primitive as box body*
4,1,4,$2,$3,$4,$5,$6,$7,$8,$9,$2,$3,0*
0 Add four circle primitives for the rounded corners*
1,1,$1+$1,$2,$3*
1,1,$1+$1,$4,$5*
1,1,$1+$1,$6,$7*
1,1,$1+$1,$8,$9*
0 Add four rect primitives between the rounded corners*
20,1,$1+$1,$2,$3,$4,$5,0*
20,1,$1+$1,$4,$5,$6,$7,0*
20,1,$1+$1,$6,$7,$8,$9,0*
20,1,$1+$1,$8,$9,$2,$3,0*%
G04 Aperture macros list end*
%ADD10RoundRect,0.200000X0.200000X0.275000X-0.200000X0.275000X-0.200000X-0.275000X0.200000X-0.275000X0*%
%ADD11RoundRect,0.200000X0.275000X0.200000X-0.275000X0.200000X-0.275000X-0.200000X0.275000X-0.200000X0*%
%ADD12RoundRect,0.251969X0.223031X0.148031X-0.223031X0.148031X-0.223031X-0.148031X0.223031X-0.148031X0*%
%ADD13RoundRect,0.200000X-0.200000X-0.275000X0.200000X-0.275000X0.200000X0.275000X-0.200000X0.275000X0*%
%ADD14RoundRect,0.150000X0.150000X-0.825000X0.150000X0.825000X-0.150000X0.825000X-0.150000X-0.825000X0*%
%ADD15RoundRect,0.200000X0.275000X-0.200000X0.275000X0.200000X-0.275000X0.200000X-0.275000X-0.200000X0*%
%ADD16RoundRect,0.200000X-0.275000X0.200000X-0.275000X-0.200000X0.275000X-0.200000X0.275000X0.200000X0*%
%ADD17RoundRect,0.150000X0.587500X0.150000X-0.587500X0.150000X-0.587500X-0.150000X0.587500X-0.150000X0*%
%ADD18RoundRect,0.200000X-0.275000X-0.200000X0.275000X-0.200000X0.275000X0.200000X-0.275000X0.200000X0*%
%ADD19RoundRect,0.251969X-0.223031X-0.148031X0.223031X-0.148031X0.223031X0.148031X-0.223031X0.148031X0*%
%ADD20RoundRect,0.150000X0.150000X-0.725000X0.150000X0.725000X-0.150000X0.725000X-0.150000X-0.725000X0*%
%ADD21R,0.600000X0.450000*%
%ADD22RoundRect,0.150000X-0.150000X0.825000X-0.150000X-0.825000X0.150000X-0.825000X0.150000X0.825000X0*%
%ADD23RoundRect,0.150000X-0.150000X0.725000X-0.150000X-0.725000X0.150000X-0.725000X0.150000X0.725000X0*%
%ADD24RoundRect,0.250000X-0.159099X0.512652X-0.512652X0.159099X0.159099X-0.512652X0.512652X-0.159099X0*%
%ADD25RoundRect,0.150000X0.150000X-0.587500X0.150000X0.587500X-0.150000X0.587500X-0.150000X-0.587500X0*%
%ADD26RoundRect,0.150000X-0.587500X-0.150000X0.587500X-0.150000X0.587500X0.150000X-0.587500X0.150000X0*%
%ADD27RoundRect,0.150000X-0.825000X-0.150000X0.825000X-0.150000X0.825000X0.150000X-0.825000X0.150000X0*%
%ADD28RoundRect,0.150000X-0.475000X-0.150000X0.475000X-0.150000X0.475000X0.150000X-0.475000X0.150000X0*%
G04 APERTURE END LIST*
D10*
%TO.C,C26*%
X178625000Y-118745000D03*
X176975000Y-118745000D03*
%TD*%
D11*
%TO.C,R7*%
X99695000Y-97600000D03*
D12*
X99695000Y-99250000D03*
%TD*%
D10*
%TO.C,R47*%
X159575000Y-113665000D03*
X157925000Y-113665000D03*
%TD*%
D13*
%TO.C,R29*%
X146495000Y-93345000D03*
X148145000Y-93345000D03*
%TD*%
D14*
%TO.C,RN1*%
X104775000Y-113600000D03*
X106045000Y-113600000D03*
X107315000Y-113600000D03*
X108585000Y-113600000D03*
X109855000Y-113600000D03*
X111125000Y-113600000D03*
X112395000Y-113600000D03*
X113665000Y-113600000D03*
X113665000Y-108650000D03*
X112395000Y-108650000D03*
X111125000Y-108650000D03*
X109855000Y-108650000D03*
X108585000Y-108650000D03*
X107315000Y-108650000D03*
X106045000Y-108650000D03*
X104775000Y-108650000D03*
%TD*%
D15*
%TO.C,C5*%
X139065000Y-117665000D03*
X139065000Y-116015000D03*
%TD*%
D13*
%TO.C,R38*%
X146495000Y-104775000D03*
X148145000Y-104775000D03*
%TD*%
D16*
%TO.C,R21*%
X126365000Y-82360000D03*
X126365000Y-84010000D03*
%TD*%
D10*
%TO.C,C21*%
X148145000Y-114935000D03*
X146495000Y-114935000D03*
%TD*%
%TO.C,R43*%
X148145000Y-81915000D03*
X146495000Y-81915000D03*
%TD*%
D16*
%TO.C,R24*%
X127635000Y-93790000D03*
X127635000Y-95440000D03*
%TD*%
D13*
%TO.C,C27*%
X175070000Y-91440000D03*
X176720000Y-91440000D03*
%TD*%
D16*
%TO.C,C1*%
X98425000Y-104585000D03*
X98425000Y-106235000D03*
%TD*%
D10*
%TO.C,R50*%
X176720000Y-92710000D03*
X175070000Y-92710000D03*
%TD*%
D13*
%TO.C,R42*%
X146495000Y-80645000D03*
X148145000Y-80645000D03*
%TD*%
D15*
%TO.C,R22*%
X125095000Y-84010000D03*
X125095000Y-82360000D03*
%TD*%
D17*
%TO.C,Q1*%
X152067500Y-79055000D03*
X152067500Y-77155000D03*
X150192500Y-78105000D03*
%TD*%
D13*
%TO.C,R34*%
X146495000Y-95885000D03*
X148145000Y-95885000D03*
%TD*%
D16*
%TO.C,R4*%
X113665000Y-116015000D03*
X113665000Y-117665000D03*
%TD*%
D13*
%TO.C,R44*%
X146495000Y-112395000D03*
X148145000Y-112395000D03*
%TD*%
D16*
%TO.C,R12*%
X140335000Y-116015000D03*
X140335000Y-117665000D03*
%TD*%
%TO.C,FB4*%
X117475000Y-116015000D03*
X117475000Y-117665000D03*
%TD*%
%TO.C,R16*%
X126047500Y-116015000D03*
X126047500Y-117665000D03*
%TD*%
%TO.C,C17*%
X130175000Y-93790000D03*
X130175000Y-95440000D03*
%TD*%
%TO.C,R17*%
X137795000Y-116015000D03*
X137795000Y-117665000D03*
%TD*%
D10*
%TO.C,R41*%
X148145000Y-79375000D03*
X146495000Y-79375000D03*
%TD*%
D15*
%TO.C,R2*%
X99695000Y-106235000D03*
X99695000Y-104585000D03*
%TD*%
D10*
%TO.C,C14*%
X159575000Y-95885000D03*
X157925000Y-95885000D03*
%TD*%
D15*
%TO.C,C12*%
X137795000Y-84010000D03*
X137795000Y-82360000D03*
%TD*%
D18*
%TO.C,R20*%
X128905000Y-95440000D03*
D19*
X128905000Y-93790000D03*
%TD*%
D15*
%TO.C,C11*%
X136525000Y-95440000D03*
X136525000Y-93790000D03*
%TD*%
D14*
%TO.C,U3*%
X116205000Y-113600000D03*
D20*
X117475000Y-113600000D03*
X118745000Y-113600000D03*
X120015000Y-113600000D03*
X121285000Y-113600000D03*
X122555000Y-113600000D03*
X123825000Y-113600000D03*
X125095000Y-113600000D03*
D14*
X125095000Y-108650000D03*
X123825000Y-108650000D03*
X122555000Y-108650000D03*
X121285000Y-108650000D03*
X120015000Y-108650000D03*
X118745000Y-108650000D03*
X117475000Y-108650000D03*
X116205000Y-108650000D03*
%TD*%
D16*
%TO.C,R8*%
X100965000Y-104585000D03*
X100965000Y-106235000D03*
%TD*%
%TO.C,C4*%
X102235000Y-116015000D03*
X102235000Y-117665000D03*
%TD*%
%TO.C,C7*%
X130175000Y-104585000D03*
X130175000Y-106235000D03*
%TD*%
%TO.C,R26*%
X139065000Y-82360000D03*
X139065000Y-84010000D03*
%TD*%
D13*
%TO.C,R28*%
X146495000Y-92075000D03*
X148145000Y-92075000D03*
%TD*%
%TO.C,R31*%
X146495000Y-89535000D03*
X148145000Y-89535000D03*
%TD*%
%TO.C,R30*%
X146495000Y-86995000D03*
X148145000Y-86995000D03*
%TD*%
D15*
%TO.C,R5*%
X100965000Y-99250000D03*
X100965000Y-97600000D03*
%TD*%
D21*
%TO.C,D2*%
X157700000Y-105410000D03*
X159800000Y-105410000D03*
%TD*%
D16*
%TO.C,FB2*%
X121285000Y-116015000D03*
X121285000Y-117665000D03*
%TD*%
D22*
%TO.C,U4*%
X140335000Y-108650000D03*
X139065000Y-108650000D03*
D23*
X137795000Y-108650000D03*
X136525000Y-108650000D03*
D22*
X136525000Y-113600000D03*
X137795000Y-113600000D03*
X139065000Y-113600000D03*
X140335000Y-113600000D03*
%TD*%
D16*
%TO.C,C25*%
X179705000Y-102680000D03*
X179705000Y-104330000D03*
%TD*%
D24*
%TO.C,C24*%
X98461751Y-78068249D03*
X97118249Y-79411751D03*
%TD*%
D16*
%TO.C,C8*%
X132715000Y-116015000D03*
X132715000Y-117665000D03*
%TD*%
D13*
%TO.C,C22*%
X146495000Y-78105000D03*
X148145000Y-78105000D03*
%TD*%
D15*
%TO.C,C6*%
X136525000Y-106235000D03*
X136525000Y-104585000D03*
%TD*%
D10*
%TO.C,C20*%
X159575000Y-112395000D03*
X157925000Y-112395000D03*
%TD*%
D13*
%TO.C,R36*%
X146495000Y-103505000D03*
X148145000Y-103505000D03*
%TD*%
D16*
%TO.C,R13*%
X137795000Y-104585000D03*
X137795000Y-106235000D03*
%TD*%
D13*
%TO.C,R9*%
X157925000Y-97155000D03*
X159575000Y-97155000D03*
%TD*%
D17*
%TO.C,Q2*%
X180642500Y-92390000D03*
X180642500Y-90490000D03*
X178767500Y-91440000D03*
%TD*%
D25*
%TO.C,U7*%
X120970000Y-87297500D03*
X122870000Y-87297500D03*
X121920000Y-85422500D03*
%TD*%
D14*
%TO.C,U6*%
X125095000Y-91375000D03*
X126365000Y-91375000D03*
X127635000Y-91375000D03*
X128905000Y-91375000D03*
X128905000Y-86425000D03*
X127635000Y-86425000D03*
X126365000Y-86425000D03*
X125095000Y-86425000D03*
%TD*%
D16*
%TO.C,C13*%
X116205000Y-104585000D03*
X116205000Y-106235000D03*
%TD*%
D15*
%TO.C,R49*%
X178435000Y-104330000D03*
X178435000Y-102680000D03*
%TD*%
D13*
%TO.C,R37*%
X157925000Y-102235000D03*
X159575000Y-102235000D03*
%TD*%
D22*
%TO.C,U9*%
X140335000Y-86425000D03*
X139065000Y-86425000D03*
X137795000Y-86425000D03*
X136525000Y-86425000D03*
X135255000Y-86425000D03*
X133985000Y-86425000D03*
X132715000Y-86425000D03*
X131445000Y-86425000D03*
X131445000Y-91375000D03*
X132715000Y-91375000D03*
X133985000Y-91375000D03*
X135255000Y-91375000D03*
X136525000Y-91375000D03*
X137795000Y-91375000D03*
X139065000Y-91375000D03*
X140335000Y-91375000D03*
%TD*%
D26*
%TO.C,U19*%
X178767500Y-94300000D03*
X178767500Y-96200000D03*
X180642500Y-95250000D03*
%TD*%
D13*
%TO.C,R40*%
X146495000Y-113665000D03*
X148145000Y-113665000D03*
%TD*%
%TO.C,R39*%
X157925000Y-111125000D03*
X159575000Y-111125000D03*
%TD*%
%TO.C,R32*%
X146495000Y-88265000D03*
X148145000Y-88265000D03*
%TD*%
%TO.C,R45*%
X146495000Y-111125000D03*
X148145000Y-111125000D03*
%TD*%
D27*
%TO.C,U15*%
X150560000Y-117475000D03*
X150560000Y-118745000D03*
X150560000Y-120015000D03*
X150560000Y-121285000D03*
X155510000Y-121285000D03*
X155510000Y-120015000D03*
X155510000Y-118745000D03*
X155510000Y-117475000D03*
%TD*%
D15*
%TO.C,C2*%
X102235000Y-99250000D03*
X102235000Y-97600000D03*
%TD*%
%TO.C,R18*%
X136525000Y-117665000D03*
X136525000Y-116015000D03*
%TD*%
%TO.C,R15*%
X133985000Y-117665000D03*
X133985000Y-116015000D03*
%TD*%
D27*
%TO.C,U10*%
X150560000Y-95885000D03*
X150560000Y-97155000D03*
X150560000Y-98425000D03*
X150560000Y-99695000D03*
X155510000Y-99695000D03*
X155510000Y-98425000D03*
X155510000Y-97155000D03*
X155510000Y-95885000D03*
%TD*%
D15*
%TO.C,R11*%
X100965000Y-117665000D03*
X100965000Y-116015000D03*
%TD*%
D14*
%TO.C,U5*%
X128905000Y-113600000D03*
X130175000Y-113600000D03*
X131445000Y-113600000D03*
X132715000Y-113600000D03*
D20*
X132715000Y-108650000D03*
X131445000Y-108650000D03*
X130175000Y-108650000D03*
D14*
X128905000Y-108650000D03*
%TD*%
D16*
%TO.C,C16*%
X128905000Y-82360000D03*
X128905000Y-84010000D03*
%TD*%
D13*
%TO.C,R10*%
X146495000Y-98425000D03*
X148145000Y-98425000D03*
%TD*%
D14*
%TO.C,U1*%
X98425000Y-113600000D03*
X99695000Y-113600000D03*
X100965000Y-113600000D03*
X102235000Y-113600000D03*
X102235000Y-108650000D03*
X100965000Y-108650000D03*
X99695000Y-108650000D03*
X98425000Y-108650000D03*
%TD*%
D10*
%TO.C,C15*%
X148145000Y-99695000D03*
X146495000Y-99695000D03*
%TD*%
D16*
%TO.C,FB1*%
X123825000Y-116015000D03*
X123825000Y-117665000D03*
%TD*%
D13*
%TO.C,R48*%
X157925000Y-116205000D03*
X159575000Y-116205000D03*
%TD*%
D27*
%TO.C,U11*%
X150560000Y-102235000D03*
X150560000Y-103505000D03*
X150560000Y-104775000D03*
X150560000Y-106045000D03*
X155510000Y-106045000D03*
X155510000Y-104775000D03*
X155510000Y-103505000D03*
X155510000Y-102235000D03*
%TD*%
D16*
%TO.C,R25*%
X137795000Y-93790000D03*
X137795000Y-95440000D03*
%TD*%
D15*
%TO.C,FB3*%
X128270000Y-117665000D03*
X128270000Y-116015000D03*
%TD*%
D22*
%TO.C,U18*%
X179705000Y-106745000D03*
X178435000Y-106745000D03*
X177165000Y-106745000D03*
X175895000Y-106745000D03*
X175895000Y-111695000D03*
X177165000Y-111695000D03*
X178435000Y-111695000D03*
X179705000Y-111695000D03*
%TD*%
D15*
%TO.C,R1*%
X104775000Y-106235000D03*
X104775000Y-104585000D03*
%TD*%
D13*
%TO.C,R27*%
X146495000Y-90805000D03*
X148145000Y-90805000D03*
%TD*%
%TO.C,R35*%
X157925000Y-98425000D03*
X159575000Y-98425000D03*
%TD*%
D26*
%TO.C,U13*%
X150192500Y-80965000D03*
X150192500Y-82865000D03*
X152067500Y-81915000D03*
%TD*%
D15*
%TO.C,FB5*%
X121285000Y-106235000D03*
X121285000Y-104585000D03*
%TD*%
D10*
%TO.C,R52*%
X176720000Y-95250000D03*
X175070000Y-95250000D03*
%TD*%
D15*
%TO.C,R14*%
X128905000Y-106235000D03*
X128905000Y-104585000D03*
%TD*%
%TO.C,C10*%
X134620000Y-106235000D03*
X134620000Y-104585000D03*
%TD*%
D13*
%TO.C,R33*%
X146495000Y-97155000D03*
X148145000Y-97155000D03*
%TD*%
D15*
%TO.C,R23*%
X126365000Y-95440000D03*
X126365000Y-93790000D03*
%TD*%
D25*
%TO.C,U8*%
X120970000Y-92377500D03*
X122870000Y-92377500D03*
X121920000Y-90502500D03*
%TD*%
D27*
%TO.C,U12*%
X150560000Y-111125000D03*
X150560000Y-112395000D03*
X150560000Y-113665000D03*
X150560000Y-114935000D03*
X155510000Y-114935000D03*
X155510000Y-113665000D03*
X155510000Y-112395000D03*
X155510000Y-111125000D03*
%TD*%
D15*
%TO.C,R3*%
X114935000Y-106235000D03*
X114935000Y-104585000D03*
%TD*%
D21*
%TO.C,D1*%
X146270000Y-101600000D03*
X148370000Y-101600000D03*
%TD*%
D28*
%TO.C,U14*%
X150827500Y-107635000D03*
X150827500Y-109535000D03*
D26*
X152702500Y-108585000D03*
%TD*%
D13*
%TO.C,R51*%
X175070000Y-93980000D03*
X176720000Y-93980000D03*
%TD*%
D18*
%TO.C,R6*%
X98425000Y-99250000D03*
D19*
X98425000Y-97600000D03*
%TD*%
D16*
%TO.C,C9*%
X122555000Y-116015000D03*
X122555000Y-117665000D03*
%TD*%
D13*
%TO.C,R46*%
X157925000Y-108585000D03*
X159575000Y-108585000D03*
%TD*%
D10*
%TO.C,C19*%
X148145000Y-106045000D03*
X146495000Y-106045000D03*
%TD*%
%TO.C,C23*%
X159575000Y-117475000D03*
X157925000Y-117475000D03*
%TD*%
D18*
%TO.C,R19*%
X127635000Y-84010000D03*
D19*
X127635000Y-82360000D03*
%TD*%
D10*
%TO.C,C18*%
X159575000Y-103505000D03*
X157925000Y-103505000D03*
%TD*%
D16*
%TO.C,C3*%
X104775000Y-116015000D03*
X104775000Y-117665000D03*
%TD*%
M02*
