%TF.GenerationSoftware,KiCad,Pcbnew,(6.0.0)*%
%TF.CreationDate,2022-04-29T15:29:16+05:30*%
%TF.ProjectId,Multislope 3I,4d756c74-6973-46c6-9f70-652033492e6b,rev?*%
%TF.SameCoordinates,Original*%
%TF.FileFunction,Legend,Bot*%
%TF.FilePolarity,Positive*%
%FSLAX46Y46*%
G04 Gerber Fmt 4.6, Leading zero omitted, Abs format (unit mm)*
G04 Created by KiCad (PCBNEW (6.0.0)) date 2022-04-29 15:29:16*
%MOMM*%
%LPD*%
G01*
G04 APERTURE LIST*
%ADD10C,0.152400*%
G04 APERTURE END LIST*
D10*
X182055104Y-119818936D02*
X181242304Y-119548002D01*
X182055104Y-119277069D01*
X181319714Y-118541679D02*
X181281009Y-118580383D01*
X181242304Y-118696498D01*
X181242304Y-118773907D01*
X181281009Y-118890021D01*
X181358419Y-118967431D01*
X181435828Y-119006136D01*
X181590647Y-119044840D01*
X181706761Y-119044840D01*
X181861580Y-119006136D01*
X181938990Y-118967431D01*
X182016400Y-118890021D01*
X182055104Y-118773907D01*
X182055104Y-118696498D01*
X182016400Y-118580383D01*
X181977695Y-118541679D01*
X181319714Y-117728879D02*
X181281009Y-117767583D01*
X181242304Y-117883698D01*
X181242304Y-117961107D01*
X181281009Y-118077221D01*
X181358419Y-118154631D01*
X181435828Y-118193336D01*
X181590647Y-118232040D01*
X181706761Y-118232040D01*
X181861580Y-118193336D01*
X181938990Y-118154631D01*
X182016400Y-118077221D01*
X182055104Y-117961107D01*
X182055104Y-117883698D01*
X182016400Y-117767583D01*
X181977695Y-117728879D01*
X178702304Y-118502974D02*
X179089352Y-118773907D01*
X178702304Y-118967431D02*
X179515104Y-118967431D01*
X179515104Y-118657793D01*
X179476400Y-118580383D01*
X179437695Y-118541679D01*
X179360285Y-118502974D01*
X179244171Y-118502974D01*
X179166761Y-118541679D01*
X179128057Y-118580383D01*
X179089352Y-118657793D01*
X179089352Y-118967431D01*
X179515104Y-118232040D02*
X178702304Y-117690174D01*
X179515104Y-117690174D02*
X178702304Y-118232040D01*
X174396400Y-119431888D02*
X174435104Y-119509298D01*
X174435104Y-119625412D01*
X174396400Y-119741526D01*
X174318990Y-119818936D01*
X174241580Y-119857640D01*
X174086761Y-119896345D01*
X173970647Y-119896345D01*
X173815828Y-119857640D01*
X173738419Y-119818936D01*
X173661009Y-119741526D01*
X173622304Y-119625412D01*
X173622304Y-119548002D01*
X173661009Y-119431888D01*
X173699714Y-119393183D01*
X173970647Y-119393183D01*
X173970647Y-119548002D01*
X173622304Y-119044840D02*
X174435104Y-119044840D01*
X173622304Y-118580383D01*
X174435104Y-118580383D01*
X173622304Y-118193336D02*
X174435104Y-118193336D01*
X174435104Y-117999812D01*
X174396400Y-117883698D01*
X174318990Y-117806288D01*
X174241580Y-117767583D01*
X174086761Y-117728879D01*
X173970647Y-117728879D01*
X173815828Y-117767583D01*
X173738419Y-117806288D01*
X173661009Y-117883698D01*
X173622304Y-117999812D01*
X173622304Y-118193336D01*
X176975104Y-118890021D02*
X176975104Y-118425564D01*
X176162304Y-118657793D02*
X176975104Y-118657793D01*
X176975104Y-118232040D02*
X176162304Y-117690174D01*
X176975104Y-117690174D02*
X176162304Y-118232040D01*
M02*
