M48
; DRILL file {KiCad (6.0.0)} date Tue Jul 12 00:59:47 2022
; FORMAT={-:-/ absolute / inch / decimal}
; #@! TF.CreationDate,2022-07-12T00:59:47+05:30
; #@! TF.GenerationSoftware,Kicad,Pcbnew,(6.0.0)
; #@! TF.FileFunction,Plated,1,4,PTH
FMAT,2
INCH
; #@! TA.AperFunction,Plated,PTH,ViaDrill
T1C0.0157
; #@! TA.AperFunction,Plated,PTH,ComponentDrill
T2C0.0197
; #@! TA.AperFunction,Plated,PTH,ViaDrill
T3C0.0200
; #@! TA.AperFunction,Plated,PTH,ComponentDrill
T4C0.0276
; #@! TA.AperFunction,Plated,PTH,ComponentDrill
T5C0.0295
; #@! TA.AperFunction,Plated,PTH,ComponentDrill
T6C0.0394
; #@! TA.AperFunction,Plated,PTH,ComponentDrill
T7C0.0402
; #@! TA.AperFunction,Plated,PTH,ComponentDrill
T8C0.1260
%
G90
G05
T1
X5.075Y-3.2
X5.125Y-3.8
T2
X3.685Y-2.6772
X3.685Y-5.1969
X3.7127Y-2.6104
X3.7127Y-2.744
X3.7127Y-5.13
X3.7127Y-5.2637
X3.7795Y-2.5827
X3.7795Y-2.7717
X3.7795Y-5.1024
X3.7795Y-5.2913
X3.8463Y-2.6104
X3.8463Y-2.744
X3.8463Y-5.13
X3.8463Y-5.2637
X3.874Y-2.6772
X3.874Y-5.1969
X7.2283Y-2.6772
X7.2283Y-5.1969
X7.256Y-2.6104
X7.256Y-2.744
X7.256Y-5.13
X7.256Y-5.2637
X7.3228Y-2.5827
X7.3228Y-2.7717
X7.3228Y-5.1024
X7.3228Y-5.2913
X7.3896Y-2.6104
X7.3896Y-2.744
X7.3896Y-5.13
X7.3896Y-5.2637
X7.4173Y-2.6772
X7.4173Y-5.1969
T3
X3.8Y-3.2
X3.825Y-4.075
X3.875Y-4.075
X3.925Y-4.075
X3.925Y-4.5362
X3.925Y-4.675
X3.95Y-3.05
X3.975Y-4.675
X4.025Y-3.8
X4.025Y-4.2
X4.025Y-4.675
X4.125Y-4.675
X4.4Y-3.375
X4.525Y-4.075
X4.575Y-4.075
X4.625Y-4.675
X4.775Y-4.075
X4.775Y-4.675
X4.825Y-4.525
X4.825Y-4.675
X4.875Y-4.675
X4.925Y-4.525
X5.025Y-3.2
X5.075Y-3.8
X5.075Y-4.075
X5.125Y-4.075
X5.175Y-3.675
X5.225Y-3.675
X5.225Y-4.675
X5.275Y-3.675
X5.275Y-4.675
X5.325Y-3.675
X5.375Y-3.8
X5.375Y-4.075
X5.375Y-4.675
X5.425Y-3.2
X5.425Y-3.525
X5.425Y-3.8
X5.425Y-4.075
X5.425Y-4.225
X5.475Y-3.2
X5.475Y-3.35
X5.475Y-4.675
X5.525Y-4.675
X5.625Y-3.0125
X5.625Y-3.1375
X5.625Y-3.2125
X5.625Y-3.3375
X5.675Y-3.0125
X5.675Y-3.1375
X5.675Y-3.2125
X5.675Y-3.3375
X5.725Y-3.0125
X5.725Y-3.1375
X5.725Y-3.2125
X5.725Y-3.3375
X5.725Y-3.825
X5.725Y-3.875
X5.725Y-3.925
X5.725Y-4.125
X5.725Y-4.175
X5.725Y-4.475
X5.725Y-4.525
X5.775Y-3.0125
X5.775Y-3.1375
X5.775Y-3.2125
X5.775Y-3.3375
X5.85Y-4.775
X5.875Y-4.125
X5.8841Y-3.1341
X5.8841Y-3.3341
X6.0Y-2.975
X6.0Y-3.025
X6.0Y-3.075
X6.0Y-3.175
X6.0Y-3.225
X6.0Y-3.275
X6.0Y-3.775
X6.0Y-4.375
X6.0Y-4.475
X6.325Y-3.775
X6.325Y-3.825
X6.325Y-3.875
X6.325Y-4.025
X6.325Y-4.075
X6.325Y-4.275
X6.325Y-4.375
X6.325Y-4.425
X6.325Y-4.575
X6.325Y-4.625
X6.4435Y-2.7565
X6.5065Y-2.7565
X6.925Y-4.125
X7.025Y-4.0
X7.075Y-4.0
T4
X4.075Y-3.375
X4.125Y-3.325
X4.125Y-3.425
X4.175Y-3.375
T5
X3.7642Y-4.675
X3.8142Y-4.625
X3.8142Y-4.725
T6
X3.775Y-4.25
X3.775Y-4.35
X3.775Y-4.45
X4.525Y-2.675
X4.625Y-2.675
X5.725Y-4.25
X5.725Y-4.6
X5.825Y-4.25
X5.825Y-4.6
X6.025Y-2.675
X6.025Y-2.9
X6.125Y-2.675
X6.125Y-2.9
X6.225Y-2.675
X6.225Y-2.9
X6.225Y-3.7
X6.225Y-3.95
X6.325Y-3.7
X6.325Y-3.95
X6.475Y-2.975
X6.475Y-3.075
X6.475Y-3.175
X6.475Y-3.275
X6.475Y-3.375
X6.475Y-3.475
X6.475Y-3.575
X6.5375Y-5.0125
X6.5375Y-5.1125
X6.5375Y-5.2125
X6.5375Y-5.3125
X6.85Y-4.575
X6.95Y-4.575
X7.05Y-4.575
X7.15Y-4.575
T7
X6.65Y-2.975
X6.65Y-3.075
X6.65Y-3.175
X6.65Y-3.275
X6.65Y-3.375
X6.65Y-3.475
X6.65Y-3.575
X6.65Y-3.675
X6.65Y-3.775
X6.65Y-3.875
X6.65Y-3.975
X6.65Y-4.075
X6.65Y-4.175
X6.65Y-4.275
X6.65Y-4.375
X6.65Y-4.475
X6.65Y-4.575
X6.65Y-4.675
X6.65Y-4.775
X6.65Y-4.875
X7.35Y-2.975
X7.35Y-3.075
X7.35Y-3.175
X7.35Y-3.275
X7.35Y-3.375
X7.35Y-3.475
X7.35Y-3.575
X7.35Y-3.675
X7.35Y-3.775
X7.35Y-3.875
X7.35Y-3.975
X7.35Y-4.075
X7.35Y-4.175
X7.35Y-4.275
X7.35Y-4.375
X7.35Y-4.475
X7.35Y-4.575
X7.35Y-4.675
X7.35Y-4.775
X7.35Y-4.875
T8
X3.7795Y-2.6772
X3.7795Y-5.1969
X7.3228Y-2.6772
X7.3228Y-5.1969
T6
G00X3.7598Y-2.9134
M15
G01X3.878Y-2.9134
M16
G05
G00X3.7598Y-4.9213
M15
G01X3.878Y-4.9213
M16
G05
G00X5.374Y-2.9134
M15
G01X5.4921Y-2.9134
M16
G05
G00X5.374Y-4.9213
M15
G01X5.4921Y-4.9213
M16
G05
T0
M30
